<svg xmlns="http://www.w3.org/2000/svg" width="512" height="512" viewBox="0 0 512 512">
  <defs>
    <linearGradient id="bg" x1="0" y1="0" x2="1" y2="1">
      <stop offset="0" stop-color="#FB923C"/>
      <stop offset="1" stop-color="#DC2626"/>
    </linearGradient>
    <linearGradient id="face" x1="0" y1="0" x2="0" y2="1">
      <stop offset="0" stop-color="#FFF7ED"/>
      <stop offset="1" stop-color="#FFEDD5"/>
    </linearGradient>
  </defs>
  <rect x="16" y="16" width="480" height="480" rx="112" fill="url(#bg)"/>
  <!-- ears -->
  <path d="M118 96 L196 176 L112 208 Z" fill="url(#face)"/>
  <path d="M394 96 L316 176 L400 208 Z" fill="url(#face)"/>
  <path d="M136 122 L188 176 L132 196 Z" fill="#F97316"/>
  <path d="M376 122 L324 176 L380 196 Z" fill="#F97316"/>
  <!-- head -->
  <path d="M256 150
           C336 150 398 196 398 262
           C398 300 378 334 342 358
           C318 396 290 418 256 418
           C222 418 194 396 170 358
           C134 334 114 300 114 262
           C114 196 176 150 256 150 Z" fill="url(#face)"/>
  <!-- inner face patches -->
  <path d="M256 176 C310 176 356 208 362 256 C356 300 320 330 300 340 C284 322 270 314 256 314 C242 314 228 322 212 340 C192 330 156 300 150 256 C156 208 202 176 256 176 Z" fill="#FB923C"/>
  <!-- eyes -->
  <circle cx="196" cy="258" r="18" fill="#1C1917"/>
  <circle cx="316" cy="258" r="18" fill="#1C1917"/>
  <circle cx="202" cy="251" r="6" fill="#FFFFFF"/>
  <circle cx="322" cy="251" r="6" fill="#FFFFFF"/>
  <!-- nose -->
  <path d="M236 328 L276 328 L256 352 Z" fill="#1C1917"/>
  <!-- smile -->
  <path d="M226 372 C244 386 268 386 286 372" fill="none" stroke="#1C1917" stroke-width="11" stroke-linecap="round"/>
</svg>
